<svg xmlns="http://www.w3.org/2000/svg" viewBox="0 0 512 512" id="project-management"><path fill-rule="evenodd" d="M391.131 346.87v7.405l-50.403 8.068a125.865 125.865 0 0 1-13.702 33.041l29.945 41.36-33.094 33.094-41.36-29.946a125.956 125.956 0 0 1-33.041 13.7l-8.069 50.406h-46.803l-8.068-50.403a125.885 125.885 0 0 1-33.042-13.702l-41.359 29.945-33.094-33.094 29.946-41.36a125.97 125.97 0 0 1-13.7-33.041l-50.405-8.068v-46.803l50.406-8.069a125.92 125.92 0 0 1 13.699-33.041l-29.946-41.36 33.094-33.094 41.357 29.944a125.901 125.901 0 0 1 33.043-13.7l8.068-50.403h7.404v105.835c-30.479 7.219-53.156 34.605-53.156 67.29 0 38.192 30.961 69.153 69.154 69.153 32.685 0 60.072-22.678 67.29-53.157h105.836zM426.758 8.566a6.515 6.515 0 0 1 1.907 1.342l36.548 36.547a6.521 6.521 0 0 1 1.342 1.907h-36.542a3.261 3.261 0 0 1-3.255-3.255V8.566zm-202.24-.564c-3.585 0-6.509 2.924-6.509 6.509v309.85c0 3.585 2.924 6.509 6.509 6.509h236.091c3.585 0 6.509-2.924 6.509-6.509V64.362h-37.106c-10.623 0-19.255-8.631-19.255-19.255V8.002H224.518zm44.325 107.915a8 8 0 0 1 0-16h147.442a8 8 0 0 1 0 16H268.843zm0-43.452a8 8 0 0 1 0-16h105.842a8 8 0 0 1 0 16H268.843zm0 217.257h147.442a8 8 0 0 0 0-16H268.843a8 8 0 0 0 0 16zm0-43.451h147.442a8 8 0 0 0 0-16H268.843a8 8 0 0 0 0 16zm0-43.451h147.442a8 8 0 0 0 0-16H268.843a8 8 0 0 0 0 16zm0-43.452h147.442a8 8 0 0 0 0-16H268.843a8 8 0 0 0 0 16z" clip-rule="evenodd"></path></svg>