<svg xmlns="http://www.w3.org/2000/svg" data-name="Layer 1" viewBox="0 0 512 512" id="mobile-analytics"><g data-name=" Group 3"><path fill="#00acea" d="M392.14,397.38v54.25a40,40,0,0,1-40,40H159.86a40,40,0,0,1-40-40V397.38ZM276.94,444.5A20.94,20.94,0,1,0,256,465.45,20.94,20.94,0,0,0,276.94,444.5Z"></path><path fill="#00efd1" d="M221.99,316.3V224.77H191.61V316.3Zm72.82,0h30.38V203.13H294.81Zm-51.6,0h30.38V249.23H243.21ZM392.14,98.91V397.38H119.86V98.91Z"></path><path fill="#00acea" d="M392.14,60.37V98.91H119.86V60.37a40,40,0,0,1,40-40H352.14A40,40,0,0,1,392.14,60.37Z"></path><rect width="30.38" height="113.17" x="294.81" y="203.13" fill="#fedb41"></rect><rect width="30.38" height="67.07" x="243.21" y="249.23" fill="#fedb41"></rect><path fill="#00efd1" d="M256,423.56a20.945,20.945,0,1,1-20.94,20.94A20.94,20.94,0,0,1,256,423.56Z"></path><rect width="30.38" height="91.53" x="191.61" y="224.77" fill="#fedb41"></rect><path fill="#083863" d="M160,499H352a48,48,0,0,0,48-48V60a48,48,0,0,0-48-48H160a48,48,0,0,0-48,48V451A48,48,0,0,0,160,499ZM128,60.37C128,42.725,142.215,28,159.86,28H352.14C369.785,28,384,42.725,384,60.37V91H128ZM128,107H384V389H128Zm0,298H384v46.63c0,17.645-14.215,32.37-31.86,32.37H159.86C142.215,484,128,469.275,128,451.63Z"></path><path fill="#083863" d="M290.04 49H221.96a8 8 0 0 0 0 16h68.08a8 8 0 0 0 0-16zM256 473.45a28.945 28.945 0 1 0-28.94-28.95A28.978 28.978 0 0 0 256 473.45zm0-41.89a12.945 12.945 0 1 1-12.94 12.94A12.955 12.955 0 0 1 256 431.56zM347.63 308H333V203.13a7.952 7.952 0 0 0-7.81-8.13H294.81a7.952 7.952 0 0 0-7.81 8.13V308h-5V249.23a8.559 8.559 0 0 0-8.41-8.23H243.21a8.381 8.381 0 0 0-8.21 8.23V308h-5V224.77a7.815 7.815 0 0 0-8.01-7.77H191.61a7.482 7.482 0 0 0-7.61 7.77V308H172V183.7a8 8 0 0 0-16 0V316.3c0 4.418 3.952 7.7 8.37 7.7H347.63a8 8 0 0 0 0-16zM214 308H200V233h14zm52 0H251V257h15zm51 0H303V211h14z"></path></g></svg>