<svg xmlns="http://www.w3.org/2000/svg" width="48" height="48" id="project"><g fill-rule="evenodd" transform="translate(0 -1004.362)"><circle cx="24" cy="1028.362" r="24" fill="#239fdb"></circle><path style="line-height:normal;text-indent:0;text-align:start;text-decoration-line:none;text-decoration-style:solid;text-decoration-color:#000;text-transform:none;block-progression:tb;isolation:auto;mix-blend-mode:normal" fill="#fff" d="M15.984 7.516c-2.331 0-4.228 1.912-4.228 4.254 0 1.318.614 2.484 1.557 3.265a5.682 5.682 0 0 0-2.983 1.125 4.343 4.343 0 0 0-1.03-.137H9.21A3.011 3.011 0 0 0 10 14c0-1.661-1.347-3.021-3-3.021S4 12.339 4 14c0 .82.331 1.561.861 2.107A4.725 4.725 0 0 0 1 20.762v2.74a.5.5 0 0 0 .5.5h6.512v.48a.5.5 0 0 0 .5.5h2.863a.5.5 0 0 0 .264 0h8.72a.5.5 0 0 0 .264 0h2.865a.5.5 0 0 0 .5-.5v-.48H30.5a.5.5 0 0 0 .5-.5v-2.74a4.725 4.725 0 0 0-3.861-4.655A3.02 3.02 0 0 0 25 10.98c-1.653 0-3 1.36-3 3.021 0 .78.305 1.485.791 2.023h-.092c-.36 0-.7.058-1.03.137a5.681 5.681 0 0 0-3.009-1.125c.942-.78 1.555-1.948 1.555-3.265 0-2.342-1.9-4.254-4.23-4.254zm0 1c1.788 0 3.23 1.45 3.23 3.254a3.23 3.23 0 0 1-3.153 3.244h-.153a3.228 3.228 0 0 1-3.152-3.244 3.234 3.234 0 0 1 3.228-3.254zM7 11.979c1.108 0 2 .896 2 2.021a2.005 2.005 0 0 1-2 2.023c-1.108 0-2-.898-2-2.023s.892-2.021 2-2.021zm18 0c1.108 0 2 .896 2 2.021a2.005 2.005 0 0 1-2 2.023c-1.108 0-2-.898-2-2.023s.892-2.021 2-2.021zm-11.246 4.035h1.244l-.496 5.945a.5.5 0 0 0 .144.395l1 1a.5.5 0 0 0 .708 0l1-1a.5.5 0 0 0 .144-.395l-.496-5.945h1.244a4.69 4.69 0 0 1 2.91 1.02.5.5 0 0 0 .002.001.5.5 0 0 0 .057.057 4.86 4.86 0 0 1 1.187 1.431c.042.078.088.153.125.233a4.755 4.755 0 0 1 .346 1.004c.012.054.02.11.03.164.05.28.085.569.085.865v3.193h-1.996v-2.894a.5.5 0 0 0-.508-.508.5.5 0 0 0-.492.508v2.894h-7.984v-2.894a.5.5 0 0 0-.508-.508.5.5 0 0 0-.492.508v2.894H9.012V20.79c0-.296.035-.584.086-.865.01-.055.017-.11.029-.164a4.756 4.756 0 0 1 .346-1.004c.037-.08.083-.155.125-.233a4.86 4.86 0 0 1 1.187-1.431.5.5 0 0 0 .059-.059 4.69 4.69 0 0 1 2.91-1.02zM16 16.02a.5.5 0 0 0 .002.021l.48 5.768-.482.482-.482-.482.48-5.768A.5.5 0 0 0 16 16.02ZM5.701 17.023h3.6c.031 0 .061.008.092.014a5.77 5.77 0 0 0-1.381 3.752v2.213H5v-2.494a.5.5 0 0 0-.508-.506.5.5 0 0 0-.492.506v2.494H2v-2.24c0-2.082 1.645-3.739 3.701-3.739zm16.998 0h3.6c2.056 0 3.701 1.657 3.701 3.739v2.24h-2v-2.244a.5.5 0 0 0-.508-.508.5.5 0 0 0-.492.508v2.244h-3.012v-2.213a5.77 5.77 0 0 0-1.38-3.752c.03-.005.06-.014.091-.014z" color="#000" font-family="sans-serif" font-weight="400" overflow="visible" transform="translate(8 1011.362)"></path></g></svg>