<svg xmlns="http://www.w3.org/2000/svg" data-name="Layer 1" viewBox="0 0 32 32" id="project-management"><rect width="11.469" height="3.25" x="10.188" y="25.906" fill="#58565d"></rect><path fill="#58565d" d="M9.49989,26.5H1.5V9.5a2,2,0,0,1,2-2h25a2,2,0,0,1,2,2v17H23.5004"></path><path fill="#4ebaea" d="M28.5,9.5v15H4a.5.5,0,0,1-.5-.5V10A.5.5,0,0,1,4,9.5Z"></path><path fill="#8b8891" d="M20.5,27.5h0a1,1,0,0,1-1,1h-7a1,1,0,0,1-1-1h0a1,1,0,0,0-1-1H.5v2a2,2,0,0,0,2,2h27a2,2,0,0,0,2-2v-2h-10A1,1,0,0,0,20.5,27.5Z"></path><path fill="#fff" d="M21.5,15.5H7.5a1,1,0,0,1-1-1v-1a1,1,0,0,1,1-1h10Z"></path><circle cx="24" cy="9" r="7.5" fill="#e5303e"></circle><circle cx="24" cy="9" r="5.5" fill="#fff"></circle><circle cx="24" cy="9" r="1" fill="#e5303e" transform="rotate(-37.84 24 9)"></circle><path d="M31.5,26H31V12.86438A7.99432,7.99432,0,1,0,16.26331,7H3.5A2.50294,2.50294,0,0,0,1,9.5V26H.5a.49971.49971,0,0,0-.5.5v2A2.50294,2.50294,0,0,0,2.5,31h27A2.50294,2.50294,0,0,0,32,28.5v-2A.49971.49971,0,0,0,31.5,26ZM24,2a6.99134,6.99134,0,0,1,4.1532,12.62177l-.00751.00562a6.97977,6.97977,0,0,1-10.29913-2.2926.47312.47312,0,0,0-.0354-.07318,6.9447,6.9447,0,0,1-.78491-2.7439c.00024-.00623.00354-.01141.00354-.0177,0-.0105-.00537-.01929-.006-.0296C17.01337,9.31421,17,9.15875,17,9A7.00786,7.00786,0,0,1,24,2ZM18.72626,15H7.5a.50034.50034,0,0,1-.5-.5v-1a.50034.50034,0,0,1,.5-.5h9.58246A8.04579,8.04579,0,0,0,18.72626,15ZM16.589,12H7.5A1.50164,1.50164,0,0,0,6,13.5v1A1.50164,1.50164,0,0,0,7.5,16H20.13562A7.94888,7.94888,0,0,0,28,15.91754V24H4V10H16.06946A7.93316,7.93316,0,0,0,16.589,12ZM2,9.5A1.50164,1.50164,0,0,1,3.5,8H16.06946A8.00884,8.00884,0,0,0,16,9H3.5a.49971.49971,0,0,0-.5.5v15a.49971.49971,0,0,0,.5.5h25a.49971.49971,0,0,0,.5-.5V15.235a8.06386,8.06386,0,0,0,1-.9613V26H21.5A1.50164,1.50164,0,0,0,20,27.5a.50034.50034,0,0,1-.5.5h-7a.50034.50034,0,0,1-.5-.5A1.50164,1.50164,0,0,0,10.5,26H2Zm29,19A1.50164,1.50164,0,0,1,29.5,30H2.5A1.50164,1.50164,0,0,1,1,28.5V27h9.5a.50034.50034,0,0,1,.5.5A1.50164,1.50164,0,0,0,12.5,29h7A1.50164,1.50164,0,0,0,21,27.5a.50034.50034,0,0,1,.5-.5H31ZM15.5,21h-9a.5.5,0,0,0,0,1h9a.5.5,0,0,0,0-1Zm8.313-10.51172a1.55554,1.55554,0,0,0,.18994.01172,1.49537,1.49537,0,0,0,1.4093-1H26.25a.5.5,0,0,0,0-1h-.84235A1.45249,1.45249,0,0,0,24.5,7.58771V6.25a.5.5,0,0,0-1,0V7.59314a1.496,1.496,0,0,0,.313,2.89514Zm-.11963-1.88281A.494.494,0,0,1,23.999,8.5a.56057.56057,0,0,1,.06348.00391.50082.50082,0,1,1-.36914.10156ZM6.5,19h11a.5.5,0,0,0,0-1H6.5a.5.5,0,0,0,0,1ZM24,15a6,6,0,1,0-6-6A6.00656,6.00656,0,0,0,24,15ZM24,4a5,5,0,1,1-5,5A5.00589,5.00589,0,0,1,24,4Z"></path></svg>