<?xml version="1.0" standalone="no"?>
<!DOCTYPE svg PUBLIC "-//W3C//DTD SVG 20010904//EN"
 "http://www.w3.org/TR/2001/REC-SVG-20010904/DTD/svg10.dtd">
<svg version="1.0" xmlns="http://www.w3.org/2000/svg"
 width="250.000000pt" height="103.000000pt" viewBox="0 0 250.000000 103.000000"
 preserveAspectRatio="xMidYMid meet">

<g transform="translate(0.000000,103.000000) scale(0.100000,-0.100000)"
fill="#000000" stroke="none">
<path d="M0 800 l0 -231 133 2 c82 0 137 5 146 13 9 7 12 7 8 0 -8 -13 111
-13 132 0 10 6 12 5 7 -2 -5 -9 32 -12 143 -12 l151 0 0 -77 0 -77 28 26 c43
40 113 76 172 89 30 6 67 18 82 25 21 11 97 14 363 14 328 0 335 0 335 20 0
20 -7 20 -480 20 l-480 0 0 195 0 195 234 0 c167 0 237 3 242 12 4 7 3 8 -4 4
-7 -4 -12 -1 -12 6 0 9 -3 9 -10 -2 -6 -10 -10 -11 -10 -2 0 9 -125 12 -590
12 l-590 0 0 -230z m212 123 c10 -9 18 -21 18 -27 0 -6 -5 -5 -12 2 -28 28
-88 0 -88 -41 0 -11 9 -35 21 -53 18 -30 19 -54 1 -54 -15 0 -62 88 -62 115 0
61 78 98 122 58z m142 -35 c14 -23 2 -32 -22 -17 -22 14 -61 4 -46 -11 6 -6
27 -19 48 -29 33 -17 40 -18 64 -5 15 8 35 14 45 14 21 0 23 36 2 44 -9 3 -24
-3 -35 -14 -11 -11 -22 -20 -25 -20 -10 0 -5 36 7 48 14 14 74 16 83 2 3 -5 7
-37 7 -70 1 -34 5 -63 10 -66 4 -3 5 2 2 10 -4 10 -1 16 9 16 8 0 17 -7 21
-15 3 -8 17 -15 31 -15 41 0 30 39 -15 54 -28 9 -36 17 -38 39 -2 16 2 35 9
43 16 19 69 14 83 -8 13 -21 0 -36 -16 -20 -17 17 -58 15 -58 -2 0 -8 16 -20
35 -26 41 -14 54 -33 53 -81 -1 -19 -3 -29 -5 -22 -4 10 -9 10 -24 0 -14 -9
-26 -9 -48 0 -20 7 -33 7 -40 0 -7 -7 -15 -6 -25 2 -10 8 -16 9 -21 1 -9 -15
-41 -12 -60 6 -15 15 -17 15 -34 0 -31 -29 -80 -15 -94 27 -8 21 18 24 27 2 3
-8 17 -15 31 -15 41 0 30 39 -15 54 -28 9 -36 17 -38 39 -2 16 2 35 9 43 16
19 69 14 83 -8z m-156 -45 c26 -37 65 -129 47 -111 -3 3 -19 -7 -35 -23 -34
-34 -58 -36 -94 -8 -31 24 -28 36 3 19 26 -13 58 2 71 33 6 16 2 33 -16 63
-21 38 -22 54 -3 54 4 0 16 -12 27 -27z m822 -259 c0 -2 -9 -4 -21 -4 -11 0
-18 4 -14 10 5 8 35 3 35 -6z m408 -1 c-71 -2 -185 -2 -255 0 -71 1 -13 3 127
3 140 0 198 -2 128 -3z"/>
<path d="M423 810 c-28 -11 -31 -50 -5 -50 23 0 42 19 42 42 0 20 -5 21 -37 8z"/>
<path d="M1392 1018 c4 -10 46 -14 156 -16 131 -2 152 0 152 13 0 13 -23 15
-156 15 -120 0 -155 -3 -152 -12z"/>
<path d="M925 961 c-3 -5 -2 -12 3 -15 5 -3 9 1 9 9 0 17 -3 19 -12 6z"/>
<path d="M845 944 c12 -9 13 -13 3 -17 -7 -2 -1 -4 15 -3 22 1 25 3 12 12 -8
6 -13 13 -10 15 2 3 -5 5 -16 5 -18 0 -19 -2 -4 -12z"/>
<path d="M901 944 c0 -11 3 -14 6 -6 3 7 2 16 -1 19 -3 4 -6 -2 -5 -13z"/>
<path d="M786 939 c3 -5 10 -7 15 -4 5 4 9 2 9 -4 0 -5 -5 -12 -10 -14 -6 -3
-5 -4 2 -3 19 4 16 29 -5 32 -9 1 -15 -2 -11 -7z"/>
<path d="M940 930 c-9 -6 -10 -10 -3 -10 6 0 15 5 18 10 8 12 4 12 -15 0z"/>
<path d="M2068 903 c-14 -4 -17 -21 -20 -126 -2 -67 -1 -141 1 -164 l3 -43 69
0 69 0 0 70 c0 60 2 70 18 70 16 -1 74 -29 60 -30 -4 0 3 -12 17 -27 13 -16
34 -41 47 -56 22 -27 26 -28 96 -25 l74 3 -54 68 c-37 47 -60 67 -75 67 -32 0
-29 16 5 23 80 16 109 92 53 140 -23 19 -45 26 -109 31 -77 7 -220 6 -254 -1z
m246 -85 c16 -26 -5 -41 -69 -46 l-55 -4 0 36 0 37 56 -3 c41 -2 60 -8 68 -20z"/>
<path d="M1240 835 c0 -8 4 -15 8 -15 5 0 9 7 9 15 0 8 -4 15 -9 15 -4 0 -8
-7 -8 -15z"/>
<path d="M1270 832 c0 -5 7 -9 15 -9 8 0 15 4 15 9 0 4 -7 8 -15 8 -8 0 -15
-4 -15 -8z"/>
<path d="M1330 830 c0 -5 5 -10 10 -10 6 0 10 5 10 10 0 6 -4 10 -10 10 -5 0
-10 -4 -10 -10z"/>
<path d="M1390 824 c0 -8 5 -12 10 -9 6 3 10 10 10 16 0 5 -4 9 -10 9 -5 0
-10 -7 -10 -16z"/>
<path d="M1465 830 c3 -5 8 -10 11 -10 2 0 4 5 4 10 0 6 -5 10 -11 10 -5 0 -7
-4 -4 -10z"/>
<path d="M1490 830 c0 -5 4 -10 9 -10 6 0 13 5 16 10 3 6 -1 10 -9 10 -9 0
-16 -4 -16 -10z"/>
<path d="M1240 790 c0 -5 5 -10 10 -10 6 0 10 5 10 10 0 6 -4 10 -10 10 -5 0
-10 -4 -10 -10z"/>
<path d="M1600 275 l0 -275 450 0 450 0 0 221 c0 136 -4 218 -9 214 -6 -3 -15
3 -20 14 -14 26 -14 40 0 21 8 -12 9 -9 5 13 -5 19 -2 29 9 33 8 4 15 12 15
20 0 12 -72 14 -450 14 l-450 0 0 -275z m508 169 c13 -9 27 -26 32 -38 7 -19
9 -18 17 14 l9 35 110 3 c204 6 204 5 204 -223 l0 -155 -85 0 c-83 0 -85 0
-100 30 -18 34 -20 132 -4 163 17 32 28 37 87 37 51 0 52 0 52 30 l0 30 -90 0
-90 0 0 -145 0 -145 -25 0 -25 0 0 145 0 145 -25 0 -25 0 0 -145 0 -145 -85 0
c-80 0 -85 1 -102 26 -23 36 -23 140 1 177 17 24 24 27 78 27 59 0 59 0 56 28
-3 27 -3 27 -90 30 l-88 3 0 -146 0 -145 -25 0 -25 0 0 145 0 145 -89 0 c-70
0 -90 -3 -95 -15 -12 -31 5 -45 54 -45 69 0 85 -22 85 -115 0 -101 -13 -115
-112 -115 -79 0 -79 0 -67 59 6 31 7 31 70 31 62 0 64 1 64 25 0 23 -4 25 -44
25 -66 0 -88 23 -94 99 -5 70 11 119 42 131 12 5 107 9 211 9 160 1 194 -2
213 -15z"/>
<path d="M1994 205 c-10 -25 6 -35 57 -35 46 0 49 2 49 25 0 23 -3 25 -50 25
-35 0 -52 -4 -56 -15z"/>
<path d="M2326 204 c-10 -26 3 -34 58 -34 51 0 53 1 48 25 -4 23 -9 25 -52 25
-35 0 -50 -4 -54 -16z"/>
<path d="M170 476 l-165 -63 -3 -136 -3 -135 33 -8 c18 -5 38 -9 43 -9 6 0 16
-6 23 -13 7 -6 19 -12 25 -12 7 0 6 4 -3 10 -8 5 -11 10 -7 10 4 0 3 9 -3 20
-9 17 -7 24 12 41 15 12 18 19 8 17 -8 -1 -32 7 -53 17 -90 45 -43 135 70 135
43 0 103 -32 103 -55 0 -9 5 -13 10 -10 6 4 8 10 5 14 -6 11 54 23 69 14 6 -4
19 -6 30 -4 33 5 68 -9 62 -25 -3 -9 -1 -12 4 -9 6 3 10 13 10 21 0 8 4 13 9
9 22 -13 71 -12 71 1 0 8 5 14 10 14 6 0 10 -17 10 -37 0 -26 3 -34 9 -24 5 8
8 23 6 33 -2 10 0 18 6 18 5 0 9 -7 9 -16 0 -10 5 -14 15 -10 8 3 21 8 28 11
7 3 21 -1 32 -9 16 -12 17 -16 6 -30 -17 -21 -40 -20 -63 1 -10 9 -18 11 -18
5 0 -6 5 -14 10 -17 6 -4 8 -11 5 -16 -8 -12 4 -51 14 -44 9 5 6 -31 -4 -58
-7 -17 -5 -17 41 1 l49 18 3 131 3 131 -93 36 c-204 78 -253 96 -258 95 -3 0
-79 -29 -170 -63z"/>
<path d="M989 443 c-1 -5 -1 -12 0 -16 1 -5 -8 -22 -20 -38 -29 -41 -24 -113
10 -152 28 -32 88 -52 124 -43 72 18 121 105 94 168 -24 56 -62 83 -115 82
-26 0 -58 -4 -71 -9 -17 -6 -22 -5 -17 3 4 7 5 12 2 12 -3 0 -7 -3 -7 -7z
m134 -17 c95 -39 88 -171 -11 -213 -44 -18 -91 -4 -127 38 -45 55 -26 141 39
173 39 19 58 20 99 2z"/>
<path d="M1031 406 c-54 -30 -66 -97 -25 -145 20 -25 34 -31 64 -31 52 0 68 8
85 41 14 27 21 89 10 89 -3 0 -24 -9 -45 -20 l-40 -20 0 50 c0 54 -7 59 -49
36z"/>
<path d="M298 293 c6 -2 18 -2 25 0 6 3 1 5 -13 5 -14 0 -19 -2 -12 -5z"/>
<path d="M603 268 c2 -7 10 -13 17 -13 7 0 15 6 18 13 2 7 -5 12 -18 12 -13 0
-20 -5 -17 -12z"/>
<path d="M1325 268 c-22 -13 -18 -35 10 -54 32 -21 32 -38 0 -31 -16 3 -24 0
-22 -7 2 -6 20 -11 40 -11 31 -1 37 3 37 21 0 26 50 40 81 23 24 -12 14 -33
-13 -26 -12 3 -18 1 -15 -6 2 -7 26 -12 56 -13 40 -1 54 3 61 17 14 25 13 27
-20 44 -32 17 -31 40 1 32 11 -3 19 -1 19 4 0 5 -16 9 -35 7 -19 -1 -37 1 -41
5 -4 3 -14 3 -23 -2 -9 -5 -39 -5 -68 -2 -29 4 -59 3 -68 -1z m42 -16 c7 -4 9
-13 4 -21 -7 -10 -13 -11 -30 -2 -12 7 -19 16 -16 22 7 11 25 12 42 1z m61 -9
c2 -8 -5 -13 -17 -13 -12 0 -21 6 -21 16 0 18 31 15 38 -3z m69 -3 c3 -11 16
-23 29 -26 30 -8 32 -34 3 -34 -12 0 -23 8 -26 19 -2 10 -16 24 -29 30 -14 6
-22 16 -19 21 11 17 37 11 42 -10z"/>
<path d="M558 233 c7 -3 16 -2 19 1 4 3 -2 6 -13 5 -11 0 -14 -3 -6 -6z"/>
<path d="M952 226 c2 -14 -9 -28 -37 -47 -50 -35 -181 -166 -173 -174 3 -4 27
17 54 45 26 28 51 49 56 48 12 -4 9 -24 -3 -20 -5 1 -8 -4 -7 -10 2 -7 -3 -12
-9 -11 -7 2 -12 -3 -10 -10 1 -6 -5 -11 -13 -9 -8 2 -12 0 -8 -4 4 -4 3 -14
-4 -23 -7 -9 21 15 60 54 69 67 91 92 55 64 -10 -8 -23 -20 -29 -28 -7 -9 -13
-10 -17 -4 -10 15 33 65 52 61 9 -2 24 7 34 19 10 13 24 20 30 16 7 -3 3 4 -8
18 -11 13 -21 26 -23 29 -2 3 -2 -4 0 -14z"/>
<path d="M1063 173 c9 -2 25 -2 35 0 9 3 1 5 -18 5 -19 0 -27 -2 -17 -5z"/>
<path d="M1160 145 c0 -20 5 -25 25 -25 20 0 25 5 25 25 0 20 -5 25 -25 25
-20 0 -25 -5 -25 -25z"/>
<path d="M1527 90 c-45 -37 -126 -70 -169 -70 -15 0 -18 8 -18 45 0 41 -2 45
-24 45 -29 0 -32 -7 -28 -65 l4 -45 147 0 146 0 0 65 c0 36 -2 65 -5 64 -3 0
-27 -18 -53 -39z"/>
<path d="M1160 45 c0 -41 2 -45 25 -45 23 0 25 4 25 45 0 41 -2 45 -25 45 -23
0 -25 -4 -25 -45z"/>
<path d="M1220 35 c0 -31 3 -35 25 -35 22 0 25 4 25 35 0 31 -3 35 -25 35 -22
0 -25 -4 -25 -35z"/>
</g>
</svg>
