<svg xmlns="http://www.w3.org/2000/svg" xmlns:xlink="http://www.w3.org/1999/xlink" viewBox="0 0 64 64" id="project-management"><defs><linearGradient id="a" x1="39" x2="39" y1="64.52" y2="-.14" gradientUnits="userSpaceOnUse"><stop offset="0" stop-color="#e93e3a"></stop><stop offset=".35" stop-color="#ed683c"></stop><stop offset=".7" stop-color="#f3903f"></stop><stop offset="1" stop-color="#fdc70c"></stop></linearGradient><linearGradient id="b" x1="35" x2="35" y1="64.52" y2="-.14" xlink:href="#a"></linearGradient><linearGradient id="c" x1="41.5" x2="41.5" y1="64.52" y2="-.14" xlink:href="#a"></linearGradient><linearGradient id="d" x1="47.374" x2="47.374" y1="64.52" y2="-.14" xlink:href="#a"></linearGradient><linearGradient id="e" x1="16" x2="16" y1="64.52" y2="-.14" xlink:href="#a"></linearGradient><linearGradient id="f" x1="9.636" x2="9.636" y1="64.52" y2="-.14" gradientTransform="rotate(45 9.636 41.635)" xlink:href="#a"></linearGradient><linearGradient id="g" x1="7" x2="7" y1="64.52" y2="-.14" xlink:href="#a"></linearGradient><linearGradient id="h" x1="9.636" x2="9.636" y1="64.52" y2="-.14" gradientTransform="rotate(45 9.636 54.363)" xlink:href="#a"></linearGradient><linearGradient id="i" x1="22.364" x2="22.364" y1="64.52" y2="-.14" gradientTransform="rotate(45 22.364 54.363)" xlink:href="#a"></linearGradient><linearGradient id="j" x1="25" x2="25" y1="64.52" y2="-.14" xlink:href="#a"></linearGradient><linearGradient id="k" x1="22.364" x2="22.364" y1="64.52" y2="-.14" gradientTransform="rotate(45 22.364 41.635)" xlink:href="#a"></linearGradient><linearGradient id="l" x1="27.921" x2="27.921" y1="64.52" y2="-.14" xlink:href="#a"></linearGradient><linearGradient id="m" x1="30.5" x2="30.5" y1="64.52" y2="-.14" gradientTransform="rotate(45 30.5 27.5)" xlink:href="#a"></linearGradient><linearGradient id="n" x1="36" x2="36" y1="64.52" y2="-.14" xlink:href="#a"></linearGradient><linearGradient id="o" x1="41" x2="41" y1="64.52" y2="-.14" xlink:href="#a"></linearGradient><linearGradient id="p" x1="38" x2="38" y1="64.52" y2="-.14" xlink:href="#a"></linearGradient></defs><path fill="url(#a)" d="M55 57a3 3 0 0 1-3 3H21v2h31a5.006 5.006 0 0 0 5-5V38h-2Z"></path><path fill="url(#b)" d="M15 15a3 3 0 0 1 3-3h5.424A4.95 4.95 0 0 0 23 14h-4a2 2 0 0 0-2 2v16h2V16h4v3a1 1 0 0 0 1 1h22a1 1 0 0 0 1-1v-3h4v6h2v-6a2 2 0 0 0-2-2h-4a4.95 4.95 0 0 0-.424-2H52a3 3 0 0 1 3 3v5h2v-5a5.006 5.006 0 0 0-5-5h-7.031A4.952 4.952 0 0 0 42 9h-2V7a5 5 0 0 0-10 0v2h-2a4.952 4.952 0 0 0-2.969 1H18a5.006 5.006 0 0 0-5 5v17h2Zm10-1a3 3 0 0 1 3-3h3a1 1 0 0 0 1-1V7a3 3 0 0 1 6 0v3a1 1 0 0 0 1 1h3a3 3 0 0 1 3 3v1H25Zm0 3h20v1H25Z"></path><path fill="url(#c)" d="M30 58h21a2 2 0 0 0 2-2V42h-2v6h-5a3 3 0 0 0-3 3v5H30Zm21-2h-4.586L51 51.414Zm-6-5a1 1 0 0 1 1-1h3.586L45 54.586Z"></path><path fill="url(#b)" d="M34 6h2v2h-2z"></path><path fill="url(#d)" d="M60.87 23.13a5.006 5.006 0 0 0-7.071 0L36.122 40.808a1 1 0 0 0-.274.51l-.648 3.239-1.907 1.907a3 3 0 0 0 4.243 4.243l1.907-1.907 3.239-.648a1 1 0 0 0 .51-.274L60.87 30.2a5.006 5.006 0 0 0 0-7.07Zm-9.9 5.656 1.415 1.414-12.021 12.022-1.414-1.414ZM36.122 49.293a1 1 0 0 1-1.415-1.415l1.414-1.414 1.415 1.415Zm3.156-2.5-2.071-2.071.472-2.357 3.956 3.956Zm3.914-1.743-1.414-1.414L53.8 31.615l1.415 1.414Zm13.436-13.435-4.243-4.243.707-.707 4.243 4.243Zm2.828-2.828-.707.707-4.243-4.243.707-.707a3 3 0 1 1 4.243 4.243Z"></path><path fill="url(#e)" d="M23.178 59.406a1 1 0 0 0 1.307-.093l2.828-2.828a1 1 0 0 0 .093-1.307l-1.624-2.166a10.96 10.96 0 0 0 .678-1.639l2.682-.383A1 1 0 0 0 30 50v-4a1 1 0 0 0-.858-.99l-2.682-.383a10.96 10.96 0 0 0-.678-1.639l1.624-2.166a1 1 0 0 0-.093-1.307l-2.828-2.828a1 1 0 0 0-1.307-.093l-2.166 1.624a10.96 10.96 0 0 0-1.639-.678l-.383-2.682A1 1 0 0 0 18 34h-4a1 1 0 0 0-.99.858l-.383 2.682a10.96 10.96 0 0 0-1.639.678l-2.166-1.624a1 1 0 0 0-1.307.093l-2.828 2.828a1 1 0 0 0-.093 1.307l1.624 2.166a10.96 10.96 0 0 0-.678 1.639l-2.682.383A1 1 0 0 0 2 46v4a1 1 0 0 0 .858.99l2.682.383a10.96 10.96 0 0 0 .678 1.639l-1.624 2.166a1 1 0 0 0 .093 1.307l2.828 2.828a1 1 0 0 0 1.307.093l2.166-1.624a10.96 10.96 0 0 0 1.639.678l.383 2.682A1 1 0 0 0 14 62h4a1 1 0 0 0 .99-.858l.383-2.682a10.96 10.96 0 0 0 1.639-.678Zm-4.95-2.7a1 1 0 0 0-.743.828L17.133 60h-2.266l-.352-2.463a1 1 0 0 0-.743-.828 8.892 8.892 0 0 1-2.356-.975 1 1 0 0 0-1.111.06l-1.99 1.492-1.6-1.6L8.206 53.7a1 1 0 0 0 .06-1.111 8.892 8.892 0 0 1-.975-2.356 1 1 0 0 0-.828-.743L4 49.133v-2.266l2.463-.352a1 1 0 0 0 .828-.743 8.892 8.892 0 0 1 .975-2.356 1 1 0 0 0-.06-1.111l-1.492-1.99 1.6-1.6 1.99 1.492a1 1 0 0 0 1.111.06 8.892 8.892 0 0 1 2.356-.975 1 1 0 0 0 .743-.828L14.867 36h2.266l.352 2.463a1 1 0 0 0 .743.828 8.892 8.892 0 0 1 2.356.975 1 1 0 0 0 1.111-.06l1.99-1.492 1.6 1.6-1.492 1.99a1 1 0 0 0-.06 1.111 8.892 8.892 0 0 1 .975 2.356 1 1 0 0 0 .828.743l2.464.353v2.266l-2.463.352a1 1 0 0 0-.828.743 8.892 8.892 0 0 1-.975 2.356 1 1 0 0 0 .06 1.111l1.492 1.99-1.6 1.6-1.986-1.491a1 1 0 0 0-1.111-.06 8.892 8.892 0 0 1-2.361.975Z"></path><path fill="url(#e)" d="M16 42a6 6 0 1 0 6 6 6.006 6.006 0 0 0-6-6Zm0 10a4 4 0 1 1 4-4 4 4 0 0 1-4 4ZM15 38h2v2h-2z"></path><path fill="url(#f)" d="M8.636 40.636h2v2h-2z" transform="rotate(-45 9.636 41.636)"></path><path fill="url(#g)" d="M6 47h2v2H6z"></path><path fill="url(#h)" d="M8.636 53.364h2v2h-2z" transform="rotate(-45 9.636 54.364)"></path><path fill="url(#e)" d="M15 56h2v2h-2z"></path><path fill="url(#i)" d="M21.364 53.364h2v2h-2z" transform="rotate(-45 22.364 54.364)"></path><path fill="url(#j)" d="M24 47h2v2h-2z"></path><path fill="url(#k)" d="M21.364 40.636h2v2h-2z" transform="rotate(-45 22.364 41.636)"></path><path fill="url(#l)" d="M28 26a3.008 3.008 0 0 1 .751.095l.5-1.938A5.059 5.059 0 0 0 28 24a5 5 0 1 0 4.842 6.249l-1.936-.5A3 3 0 1 1 28 26Z"></path><path fill="url(#m)" d="M26.964 26.5h7.071v2h-7.071z" transform="rotate(-45 30.5 27.5)"></path><path fill="url(#n)" d="M35 26h2v2h-2z"></path><path fill="url(#o)" d="M39 26h4v2h-4z"></path><path fill="url(#p)" d="M35 30h6v2h-6z"></path></svg>